<?xml version="1.0" encoding="utf-8"?>
<!-- Generator: Adobe Illustrator 24.1.1, SVG Export Plug-In . SVG Version: 6.00 Build 0)  -->
<svg version="1.1" id="Layer_1" xmlns="http://www.w3.org/2000/svg" xmlns:xlink="http://www.w3.org/1999/xlink" x="0px" y="0px"
	 viewBox="0 0 1080 1080" style="enable-background:new 0 0 1080 1080;" xml:space="preserve">
<style type="text/css">
	.st0{fill:url(#SVGID_1_);}
	.st1{fill:url(#SVGID_2_);}
	.st2{fill:#FFFFFF;}
</style>
<g>
	<g>
		<linearGradient id="SVGID_1_" gradientUnits="userSpaceOnUse" x1="3.0006" y1="540" x2="1076.9994" y2="540">
			<stop  offset="0" style="stop-color:#015BA7"/>
			<stop  offset="1" style="stop-color:#1687C8"/>
		</linearGradient>
		<path class="st0" d="M540,3C243.9,3,3,243.9,3,540s240.9,537,537,537s537-240.9,537-537S836.1,3,540,3z"/>
	</g>
	<g>
		<linearGradient id="SVGID_2_" gradientUnits="userSpaceOnUse" x1="42.9886" y1="540" x2="1037.0114" y2="540">
			<stop  offset="0" style="stop-color:#015BA7"/>
			<stop  offset="1" style="stop-color:#1687C8"/>
		</linearGradient>
		<circle class="st1" cx="540" cy="540" r="497.01"/>
	</g>
	<path class="st2" d="M906.38,594.23c-226.29-43.12-610.46,216.41-732.86,31.39c15.02-62.66,71.36-109.25,138.62-109.25
		c12.12,0,23.88,1.53,35.11,4.37c-0.07-1.45-0.11-2.91-0.11-4.37c0-50.93,41.29-92.21,92.2-92.21c41.28,0,76.23,27.14,87.98,64.55
		c35.12-60.76,100.75-101.68,175.99-101.68c112.21,0,203.18,90.96,203.18,203.18C906.48,591.54,906.41,592.88,906.38,594.23z"/>
</g>
</svg>
